<svg width="8" height="8" viewBox="0 0 8 8" fill="none" xmlns="http://www.w3.org/2000/svg">
  <path d="M7.0148 7.03161C7.0148 6.78392 6.81438 6.5835 6.56669 6.5835H1.43297C1.18529 6.5835 0.984863 6.78392 0.984863 7.03161C0.984863 7.27929 1.18529 7.47972 1.43297 7.47972H6.56669C6.81438 7.47972 7.0148 7.27847 7.0148 7.03161Z" fill="white" />
  <path d="M0.532828 3.40447C0.540161 3.40447 0.546679 3.40447 0.554012 3.40365L1.26447 5.97499H4.00039H6.7355L7.44596 3.40365C7.45328 3.40365 7.4598 3.40447 7.46714 3.40447C7.76126 3.40447 7.99998 3.16575 7.99998 2.87162C7.99998 2.5775 7.76125 2.33878 7.46714 2.33878C7.17302 2.33878 6.93429 2.5775 6.93429 2.87162C6.93429 2.92865 6.94326 2.98406 6.96037 3.03539L5.67551 3.78658L4.29451 1.49714C4.43792 1.40182 4.53324 1.23806 4.53324 1.05311C4.53324 0.758984 4.29451 0.520264 4.0004 0.520264C3.70628 0.520264 3.46755 0.758984 3.46755 1.05311C3.46755 1.23887 3.56207 1.40182 3.70628 1.49714L2.32529 3.78658L1.04043 3.03539C1.05673 2.98406 1.0665 2.92865 1.0665 2.87162C1.0665 2.5775 0.827783 2.33878 0.533659 2.33878C0.238721 2.33878 0 2.5775 0 2.87162C0 3.16575 0.238705 3.40447 0.532828 3.40447Z" fill="white" />
</svg>
  