<svg width="46" height="46" viewBox="0 0 46 46" fill="none" xmlns="http://www.w3.org/2000/svg">
  <g clip-path="url(#clip0)">
    <path d="M2.3125 21.7875H18.9376C19.7173 21.7875 20.3501 21.1547 20.3501 20.375C20.3501 19.5953 19.7173 18.9625 18.9376 18.9625H2.3125C1.53277 18.9625 0.9 19.5953 0.9 20.375C0.9 21.1547 1.53277 21.7875 2.3125 21.7875Z" fill="#3A74E7" stroke="#3A74E7" stroke-width="0.2" />
    <path d="M16.9412 20.3735L11.3768 25.9376L11.4475 26.0083L11.3768 25.9376C10.8251 26.4893 10.8251 27.3837 11.3766 27.9358C11.652 28.2125 12.0137 28.3501 12.3752 28.3501C12.7364 28.3501 13.0983 28.2124 13.3751 27.936L13.3751 27.9359L19.9376 21.3734L19.9377 21.3734C20.4894 20.8214 20.4894 19.9268 19.9376 19.3751L13.3751 12.8126L13.3751 12.8126C12.8231 12.2609 11.9286 12.2608 11.3768 12.8126C10.825 13.3644 10.8251 14.2589 11.3768 14.8109L11.3768 14.8109L16.9412 20.3735Z" fill="#3A74E7" stroke="#3A74E7" stroke-width="0.2" />
    <path d="M27.8377 5.58178L27.8377 5.58177L27.8365 5.58217C26.3791 6.08795 25.4 7.46101 25.4 8.99987V40.4999C25.4 42.4854 27.0142 44.1 28.9998 44.1C29.3865 44.1 29.7515 44.0459 30.1442 43.9241L30.1462 43.9234L40.6638 40.4163L40.6651 40.4158C42.1207 39.9084 43.0999 38.5374 43.0999 37.0001V5.50008C43.0999 3.12766 40.7701 1.33521 38.3541 2.0758L38.3541 2.07577L38.3518 2.07654L27.8377 5.58178ZM28.7493 8.25608L39.2171 4.76577C39.31 4.73762 39.3959 4.72498 39.4998 4.72498C39.9276 4.72498 40.2749 5.07388 40.2749 5.50008V37.0001C40.2749 37.33 40.0519 37.6383 39.751 37.7437C39.7508 37.7438 39.7506 37.7439 39.7504 37.7439L29.2832 41.2341C29.283 41.2341 29.2828 41.2342 29.2826 41.2343C29.0446 41.3087 28.7791 41.2582 28.572 41.1192C28.3655 40.9806 28.225 40.7597 28.225 40.4999V8.99987C28.225 8.66974 28.4463 8.36161 28.7488 8.25628C28.749 8.25621 28.7491 8.25614 28.7493 8.25608Z" fill="#3A74E7" stroke="#3A74E7" stroke-width="0.2" />
    <path d="M14.9 9.43761C14.9 10.2173 15.5328 10.8501 16.3125 10.8501C17.0922 10.8501 17.725 10.2173 17.725 9.43761V6.81261C17.725 5.66202 18.6617 4.725 19.8123 4.725H39.4998C40.2795 4.725 40.9123 4.09223 40.9123 3.3125C40.9123 2.53277 40.2795 1.9 39.4998 1.9H19.8123C17.1022 1.9 14.9 4.10259 14.9 6.81261V9.43761Z" fill="#3A74E7" stroke="#3A74E7" stroke-width="0.2" />
    <path d="M19.8123 38.85H26.8125C27.5922 38.85 28.225 38.2172 28.225 37.4375C28.225 36.6578 27.5922 36.025 26.8125 36.025H19.8123C18.6617 36.025 17.725 35.088 17.725 33.9374V31.3124C17.725 30.5326 17.0922 29.8999 16.3125 29.8999C15.5328 29.8999 14.9 30.5326 14.9 31.3124V33.9374C14.9 36.6474 17.1022 38.85 19.8123 38.85Z" fill="#3A74E7" stroke="#3A74E7" stroke-width="0.2" />
  </g>
</svg>
  