<svg width="25" height="24" viewBox="0 0 25 24" fill="none" xmlns="http://www.w3.org/2000/svg">
<path d="M16.0178 7.5L19.5718 4M21.6028 2L19.5718 4L21.6028 2ZM11.8443 11.61C12.3686 12.1195 12.7854 12.726 13.0707 13.3948C13.356 14.0635 13.5041 14.7813 13.5066 15.5066C13.509 16.232 13.3658 16.9507 13.0851 17.6213C12.8043 18.2919 12.3916 18.9012 11.8708 19.4141C11.35 19.9271 10.7312 20.3334 10.0503 20.6099C9.36928 20.8864 8.63949 21.0275 7.90291 21.025C7.16634 21.0226 6.43752 20.8767 5.75844 20.5958C5.07935 20.3148 4.46341 19.9043 3.94607 19.388C2.92872 18.3507 2.36578 16.9614 2.37851 15.5193C2.39123 14.0772 2.9786 12.6977 4.0141 11.678C5.0496 10.6583 6.45039 10.0798 7.91475 10.0673C9.37912 10.0548 10.7899 10.6091 11.8432 11.611L11.8443 11.61ZM11.8443 11.61L16.0178 7.5L11.8443 11.61ZM16.0178 7.5L19.0641 10.5L22.6182 7L19.5718 4L16.0178 7.5Z" stroke="#D0D1D3" stroke-width="2" stroke-linecap="round" stroke-linejoin="round"/>
</svg>
