<svg width="20" height="20" viewBox="0 0 20 20" fill="none" xmlns="http://www.w3.org/2000/svg">
<path d="M4.81482 1.11108L2.22223 4.44442V16.1111C2.22223 16.5531 2.40433 16.977 2.72846 17.2896C3.0526 17.6022 3.49223 17.7778 3.95062 17.7778H16.0494C16.5078 17.7778 16.9474 17.6022 17.2715 17.2896C17.5957 16.977 17.7778 16.5531 17.7778 16.1111V4.44442L15.1852 1.11108H4.81482Z" fill="#3A74E7"/>
<path d="M2.5 5H17.5" stroke="white" stroke-linecap="square" stroke-linejoin="round"/>
<path d="M13.3334 8.33325C13.3334 9.21731 12.9822 10.0652 12.357 10.6903C11.7319 11.3154 10.8841 11.6666 10 11.6666C9.11597 11.6666 8.26812 11.3154 7.643 10.6903C7.01788 10.0652 6.66669 9.21731 6.66669 8.33325" stroke="white" stroke-linecap="round" stroke-linejoin="round"/>
</svg>
