<svg width="12" height="16" viewBox="0 0 12 16" fill="none" xmlns="http://www.w3.org/2000/svg">
<path d="M3 3.50001V2.00001C3 1.60218 3.15804 1.22065 3.43934 0.939347C3.72064 0.658043 4.10218 0.500008 4.5 0.500008H7.5C7.89783 0.500008 8.27936 0.658043 8.56066 0.939347C8.84197 1.22065 9 1.60218 9 2.00001V3.50001M11.25 3.50001V14C11.25 14.3978 11.092 14.7794 10.8107 15.0607C10.5294 15.342 10.1478 15.5 9.75 15.5H2.25C1.85218 15.5 1.47064 15.342 1.18934 15.0607C0.908035 14.7794 0.75 14.3978 0.75 14V3.50001H11.25Z" stroke="#8E9095" stroke-linecap="round" stroke-linejoin="round"/>
</svg>
